<?xml version="1.0" encoding="UTF-8" standalone="no"?>
<!DOCTYPE svg PUBLIC "-//W3C//DTD SVG 1.1//EN"
 "http://www.w3.org/Graphics/SVG/1.1/DTD/svg11.dtd">
<!-- Generated by graphviz version 2.43.0 (0)
 -->
<!-- Title: %3 Pages: 1 -->
<svg width="1780pt" height="548pt"
 viewBox="0.00 0.00 1779.79 548.00" xmlns="http://www.w3.org/2000/svg" xmlns:xlink="http://www.w3.org/1999/xlink">
<g id="graph0" class="graph" transform="scale(1 1) rotate(0) translate(4 544)">
<title>%3</title>
<polygon fill="white" stroke="transparent" points="-4,4 -4,-544 1775.79,-544 1775.79,4 -4,4"/>
<!-- [root] aws_autoscaling_group.front_cluster_autoescaling -->
<g id="node1" class="node">
<title>[root] aws_autoscaling_group.front_cluster_autoescaling</title>
<polygon fill="none" stroke="black" points="814.67,-324 514.27,-324 514.27,-288 814.67,-288 814.67,-324"/>
<text text-anchor="middle" x="664.47" y="-301.8" font-family="Times,serif" font-size="14.00">aws_autoscaling_group.front_cluster_autoescaling</text>
</g>
<!-- [root] aws_launch_configuration.front_cluster -->
<g id="node2" class="node">
<title>[root] aws_launch_configuration.front_cluster</title>
<polygon fill="none" stroke="black" points="1108.75,-252 870.19,-252 870.19,-216 1108.75,-216 1108.75,-252"/>
<text text-anchor="middle" x="989.47" y="-229.8" font-family="Times,serif" font-size="14.00">aws_launch_configuration.front_cluster</text>
</g>
<!-- [root] aws_autoscaling_group.front_cluster_autoescaling&#45;&gt;[root] aws_launch_configuration.front_cluster -->
<g id="edge1" class="edge">
<title>[root] aws_autoscaling_group.front_cluster_autoescaling&#45;&gt;[root] aws_launch_configuration.front_cluster</title>
<path fill="none" stroke="black" d="M743.56,-287.97C790.93,-277.76 851.28,-264.76 900.34,-254.2"/>
<polygon fill="black" stroke="black" points="901.27,-257.58 910.31,-252.05 899.8,-250.73 901.27,-257.58"/>
</g>
<!-- [root] aws_lb_target_group.asg -->
<g id="node6" class="node">
<title>[root] aws_lb_target_group.asg</title>
<polygon fill="none" stroke="black" points="690.58,-180 534.36,-180 534.36,-144 690.58,-144 690.58,-180"/>
<text text-anchor="middle" x="612.47" y="-157.8" font-family="Times,serif" font-size="14.00">aws_lb_target_group.asg</text>
</g>
<!-- [root] aws_autoscaling_group.front_cluster_autoescaling&#45;&gt;[root] aws_lb_target_group.asg -->
<g id="edge2" class="edge">
<title>[root] aws_autoscaling_group.front_cluster_autoescaling&#45;&gt;[root] aws_lb_target_group.asg</title>
<path fill="none" stroke="black" d="M676.92,-287.82C688.68,-269.29 702.82,-239.33 690.47,-216 683.87,-203.54 672.89,-193.47 661.22,-185.59"/>
<polygon fill="black" stroke="black" points="662.98,-182.56 652.65,-180.23 659.27,-188.5 662.98,-182.56"/>
</g>
<!-- [root] data.aws_subnet_ids.default -->
<g id="node13" class="node">
<title>[root] data.aws_subnet_ids.default</title>
<polygon fill="none" stroke="black" points="348.32,-180 174.62,-180 174.62,-144 348.32,-144 348.32,-180"/>
<text text-anchor="middle" x="261.47" y="-157.8" font-family="Times,serif" font-size="14.00">data.aws_subnet_ids.default</text>
</g>
<!-- [root] aws_autoscaling_group.front_cluster_autoescaling&#45;&gt;[root] data.aws_subnet_ids.default -->
<g id="edge3" class="edge">
<title>[root] aws_autoscaling_group.front_cluster_autoescaling&#45;&gt;[root] data.aws_subnet_ids.default</title>
<path fill="none" stroke="black" d="M597.25,-287.95C561.39,-278.35 516.69,-265.59 477.47,-252 418.2,-231.47 351.71,-203.26 308.36,-184.15"/>
<polygon fill="black" stroke="black" points="309.76,-180.94 299.2,-180.09 306.93,-187.34 309.76,-180.94"/>
</g>
<!-- [root] var.max_size -->
<g id="node29" class="node">
<title>[root] var.max_size</title>
<polygon fill="none" stroke="black" points="570.45,-252 486.49,-252 486.49,-216 576.45,-216 576.45,-246 570.45,-252"/>
<polyline fill="none" stroke="black" points="570.45,-252 570.45,-246 "/>
<polyline fill="none" stroke="black" points="576.45,-246 570.45,-246 "/>
<text text-anchor="middle" x="531.47" y="-229.8" font-family="Times,serif" font-size="14.00">var.max_size</text>
</g>
<!-- [root] aws_autoscaling_group.front_cluster_autoescaling&#45;&gt;[root] var.max_size -->
<g id="edge4" class="edge">
<title>[root] aws_autoscaling_group.front_cluster_autoescaling&#45;&gt;[root] var.max_size</title>
<path fill="none" stroke="black" d="M631.93,-287.88C614.22,-278.55 592.12,-266.92 573.15,-256.94"/>
<polygon fill="black" stroke="black" points="574.61,-253.75 564.13,-252.19 571.35,-259.94 574.61,-253.75"/>
</g>
<!-- [root] var.min_size -->
<g id="node30" class="node">
<title>[root] var.min_size</title>
<polygon fill="none" stroke="black" points="675.12,-252 593.81,-252 593.81,-216 681.12,-216 681.12,-246 675.12,-252"/>
<polyline fill="none" stroke="black" points="675.12,-252 675.12,-246 "/>
<polyline fill="none" stroke="black" points="681.12,-246 675.12,-246 "/>
<text text-anchor="middle" x="637.47" y="-229.8" font-family="Times,serif" font-size="14.00">var.min_size</text>
</g>
<!-- [root] aws_autoscaling_group.front_cluster_autoescaling&#45;&gt;[root] var.min_size -->
<g id="edge5" class="edge">
<title>[root] aws_autoscaling_group.front_cluster_autoescaling&#45;&gt;[root] var.min_size</title>
<path fill="none" stroke="black" d="M657.8,-287.7C654.75,-279.81 651.09,-270.3 647.71,-261.55"/>
<polygon fill="black" stroke="black" points="650.93,-260.17 644.07,-252.1 644.4,-262.69 650.93,-260.17"/>
</g>
<!-- [root] aws_security_group.instance -->
<g id="node8" class="node">
<title>[root] aws_security_group.instance</title>
<polygon fill="none" stroke="black" points="1178.59,-180 1000.35,-180 1000.35,-144 1178.59,-144 1178.59,-180"/>
<text text-anchor="middle" x="1089.47" y="-157.8" font-family="Times,serif" font-size="14.00">aws_security_group.instance</text>
</g>
<!-- [root] aws_launch_configuration.front_cluster&#45;&gt;[root] aws_security_group.instance -->
<g id="edge6" class="edge">
<title>[root] aws_launch_configuration.front_cluster&#45;&gt;[root] aws_security_group.instance</title>
<path fill="none" stroke="black" d="M1013.93,-215.88C1026.76,-206.89 1042.67,-195.76 1056.56,-186.03"/>
<polygon fill="black" stroke="black" points="1058.73,-188.79 1064.91,-180.19 1054.71,-183.06 1058.73,-188.79"/>
</g>
<!-- [root] data.template_file.user_data -->
<g id="node15" class="node">
<title>[root] data.template_file.user_data</title>
<polygon fill="none" stroke="black" points="1408.02,-180 1234.92,-180 1234.92,-144 1408.02,-144 1408.02,-180"/>
<text text-anchor="middle" x="1321.47" y="-157.8" font-family="Times,serif" font-size="14.00">data.template_file.user_data</text>
</g>
<!-- [root] aws_launch_configuration.front_cluster&#45;&gt;[root] data.template_file.user_data -->
<g id="edge7" class="edge">
<title>[root] aws_launch_configuration.front_cluster&#45;&gt;[root] data.template_file.user_data</title>
<path fill="none" stroke="black" d="M1070.26,-215.97C1118.76,-205.74 1180.56,-192.71 1230.73,-182.13"/>
<polygon fill="black" stroke="black" points="1231.54,-185.54 1240.6,-180.05 1230.1,-178.69 1231.54,-185.54"/>
</g>
<!-- [root] var.instance_image_id -->
<g id="node26" class="node">
<title>[root] var.instance_image_id</title>
<polygon fill="none" stroke="black" points="976.05,-180 840.89,-180 840.89,-144 982.05,-144 982.05,-174 976.05,-180"/>
<polyline fill="none" stroke="black" points="976.05,-180 976.05,-174 "/>
<polyline fill="none" stroke="black" points="982.05,-174 976.05,-174 "/>
<text text-anchor="middle" x="911.47" y="-157.8" font-family="Times,serif" font-size="14.00">var.instance_image_id</text>
</g>
<!-- [root] aws_launch_configuration.front_cluster&#45;&gt;[root] var.instance_image_id -->
<g id="edge8" class="edge">
<title>[root] aws_launch_configuration.front_cluster&#45;&gt;[root] var.instance_image_id</title>
<path fill="none" stroke="black" d="M970.19,-215.7C960.55,-207.05 948.74,-196.45 938.24,-187.03"/>
<polygon fill="black" stroke="black" points="940.31,-184.18 930.53,-180.1 935.63,-189.39 940.31,-184.18"/>
</g>
<!-- [root] var.instance_type -->
<g id="node28" class="node">
<title>[root] var.instance_type</title>
<polygon fill="none" stroke="black" points="816.05,-180 708.89,-180 708.89,-144 822.05,-144 822.05,-174 816.05,-180"/>
<polyline fill="none" stroke="black" points="816.05,-180 816.05,-174 "/>
<polyline fill="none" stroke="black" points="822.05,-174 816.05,-174 "/>
<text text-anchor="middle" x="765.47" y="-157.8" font-family="Times,serif" font-size="14.00">var.instance_type</text>
</g>
<!-- [root] aws_launch_configuration.front_cluster&#45;&gt;[root] var.instance_type -->
<g id="edge9" class="edge">
<title>[root] aws_launch_configuration.front_cluster&#45;&gt;[root] var.instance_type</title>
<path fill="none" stroke="black" d="M934.96,-215.97C903.25,-206.06 863.11,-193.51 829.86,-183.12"/>
<polygon fill="black" stroke="black" points="830.81,-179.75 820.22,-180.11 828.72,-186.43 830.81,-179.75"/>
</g>
<!-- [root] aws_lb.balancer -->
<g id="node3" class="node">
<title>[root] aws_lb.balancer</title>
<polygon fill="none" stroke="black" points="312.54,-252 206.4,-252 206.4,-216 312.54,-216 312.54,-252"/>
<text text-anchor="middle" x="259.47" y="-229.8" font-family="Times,serif" font-size="14.00">aws_lb.balancer</text>
</g>
<!-- [root] aws_security_group.alb -->
<g id="node7" class="node">
<title>[root] aws_security_group.alb</title>
<polygon fill="none" stroke="black" points="516.33,-180 366.61,-180 366.61,-144 516.33,-144 516.33,-180"/>
<text text-anchor="middle" x="441.47" y="-157.8" font-family="Times,serif" font-size="14.00">aws_security_group.alb</text>
</g>
<!-- [root] aws_lb.balancer&#45;&gt;[root] aws_security_group.alb -->
<g id="edge10" class="edge">
<title>[root] aws_lb.balancer&#45;&gt;[root] aws_security_group.alb</title>
<path fill="none" stroke="black" d="M303.99,-215.88C329.2,-206.18 360.92,-193.98 387.54,-183.74"/>
<polygon fill="black" stroke="black" points="389.01,-186.92 397.09,-180.07 386.5,-180.39 389.01,-186.92"/>
</g>
<!-- [root] aws_lb.balancer&#45;&gt;[root] data.aws_subnet_ids.default -->
<g id="edge11" class="edge">
<title>[root] aws_lb.balancer&#45;&gt;[root] data.aws_subnet_ids.default</title>
<path fill="none" stroke="black" d="M259.96,-215.7C260.18,-207.98 260.45,-198.71 260.69,-190.11"/>
<polygon fill="black" stroke="black" points="264.19,-190.2 260.98,-180.1 257.2,-190 264.19,-190.2"/>
</g>
<!-- [root] aws_lb_listener.http -->
<g id="node4" class="node">
<title>[root] aws_lb_listener.http</title>
<polygon fill="none" stroke="black" points="496.85,-324 368.09,-324 368.09,-288 496.85,-288 496.85,-324"/>
<text text-anchor="middle" x="432.47" y="-301.8" font-family="Times,serif" font-size="14.00">aws_lb_listener.http</text>
</g>
<!-- [root] aws_lb_listener.http&#45;&gt;[root] aws_lb.balancer -->
<g id="edge12" class="edge">
<title>[root] aws_lb_listener.http&#45;&gt;[root] aws_lb.balancer</title>
<path fill="none" stroke="black" d="M390.15,-287.88C366.29,-278.22 336.3,-266.09 311.07,-255.88"/>
<polygon fill="black" stroke="black" points="312.24,-252.57 301.65,-252.07 309.61,-259.06 312.24,-252.57"/>
</g>
<!-- [root] aws_lb_listener_rule.asg -->
<g id="node5" class="node">
<title>[root] aws_lb_listener_rule.asg</title>
<polygon fill="none" stroke="black" points="821.77,-396 667.17,-396 667.17,-360 821.77,-360 821.77,-396"/>
<text text-anchor="middle" x="744.47" y="-373.8" font-family="Times,serif" font-size="14.00">aws_lb_listener_rule.asg</text>
</g>
<!-- [root] aws_lb_listener_rule.asg&#45;&gt;[root] aws_lb_listener.http -->
<g id="edge13" class="edge">
<title>[root] aws_lb_listener_rule.asg&#45;&gt;[root] aws_lb_listener.http</title>
<path fill="none" stroke="black" d="M666.92,-360.02C622.6,-350.27 565.72,-337.66 506.8,-324.29"/>
<polygon fill="black" stroke="black" points="507.47,-320.86 496.95,-322.05 505.92,-327.68 507.47,-320.86"/>
</g>
<!-- [root] aws_lb_listener_rule.asg&#45;&gt;[root] aws_lb_target_group.asg -->
<g id="edge14" class="edge">
<title>[root] aws_lb_listener_rule.asg&#45;&gt;[root] aws_lb_target_group.asg</title>
<path fill="none" stroke="black" d="M785.15,-359.88C799.99,-351.41 815.15,-339.59 823.47,-324 831,-309.88 831.27,-301.97 823.47,-288 793.87,-235.04 731.85,-202.3 682.67,-183.69"/>
<polygon fill="black" stroke="black" points="683.61,-180.31 673.01,-180.16 681.2,-186.88 683.61,-180.31"/>
</g>
<!-- [root] data.aws_vpc.default -->
<g id="node14" class="node">
<title>[root] data.aws_vpc.default</title>
<polygon fill="none" stroke="black" points="563.64,-108 429.3,-108 429.3,-72 563.64,-72 563.64,-108"/>
<text text-anchor="middle" x="496.47" y="-85.8" font-family="Times,serif" font-size="14.00">data.aws_vpc.default</text>
</g>
<!-- [root] aws_lb_target_group.asg&#45;&gt;[root] data.aws_vpc.default -->
<g id="edge15" class="edge">
<title>[root] aws_lb_target_group.asg&#45;&gt;[root] data.aws_vpc.default</title>
<path fill="none" stroke="black" d="M584.09,-143.88C568.93,-134.72 550.06,-123.34 533.73,-113.48"/>
<polygon fill="black" stroke="black" points="535.33,-110.36 524.96,-108.19 531.71,-116.35 535.33,-110.36"/>
</g>
<!-- [root] var.cluster_name -->
<g id="node24" class="node">
<title>[root] var.cluster_name</title>
<polygon fill="none" stroke="black" points="763.21,-108 657.72,-108 657.72,-72 769.21,-72 769.21,-102 763.21,-108"/>
<polyline fill="none" stroke="black" points="763.21,-108 763.21,-102 "/>
<polyline fill="none" stroke="black" points="769.21,-102 763.21,-102 "/>
<text text-anchor="middle" x="713.47" y="-85.8" font-family="Times,serif" font-size="14.00">var.cluster_name</text>
</g>
<!-- [root] aws_lb_target_group.asg&#45;&gt;[root] var.cluster_name -->
<g id="edge16" class="edge">
<title>[root] aws_lb_target_group.asg&#45;&gt;[root] var.cluster_name</title>
<path fill="none" stroke="black" d="M637.18,-143.88C650.14,-134.89 666.2,-123.76 680.23,-114.03"/>
<polygon fill="black" stroke="black" points="682.44,-116.76 688.67,-108.19 678.45,-111.01 682.44,-116.76"/>
</g>
<!-- [root] var.env -->
<g id="node25" class="node">
<title>[root] var.env</title>
<polygon fill="none" stroke="black" points="797.79,-36 747.14,-36 747.14,0 803.79,0 803.79,-30 797.79,-36"/>
<polyline fill="none" stroke="black" points="797.79,-36 797.79,-30 "/>
<polyline fill="none" stroke="black" points="803.79,-30 797.79,-30 "/>
<text text-anchor="middle" x="775.47" y="-13.8" font-family="Times,serif" font-size="14.00">var.env</text>
</g>
<!-- [root] aws_lb_target_group.asg&#45;&gt;[root] var.env -->
<g id="edge17" class="edge">
<title>[root] aws_lb_target_group.asg&#45;&gt;[root] var.env</title>
<path fill="none" stroke="black" d="M615.33,-143.74C619.43,-124.02 628.78,-91.91 648.47,-72 672.49,-47.72 709.28,-34.03 737.09,-26.67"/>
<polygon fill="black" stroke="black" points="738.03,-30.05 746.89,-24.24 736.34,-23.25 738.03,-30.05"/>
</g>
<!-- [root] var.instance_server_port -->
<g id="node27" class="node">
<title>[root] var.instance_server_port</title>
<polygon fill="none" stroke="black" points="1131.2,-108 983.74,-108 983.74,-72 1137.2,-72 1137.2,-102 1131.2,-108"/>
<polyline fill="none" stroke="black" points="1131.2,-108 1131.2,-102 "/>
<polyline fill="none" stroke="black" points="1137.2,-102 1131.2,-102 "/>
<text text-anchor="middle" x="1060.47" y="-85.8" font-family="Times,serif" font-size="14.00">var.instance_server_port</text>
</g>
<!-- [root] aws_lb_target_group.asg&#45;&gt;[root] var.instance_server_port -->
<g id="edge18" class="edge">
<title>[root] aws_lb_target_group.asg&#45;&gt;[root] var.instance_server_port</title>
<path fill="none" stroke="black" d="M690.69,-145.53C693.65,-145.01 696.59,-144.49 699.47,-144 792.8,-128.04 900.21,-112.65 973.44,-102.6"/>
<polygon fill="black" stroke="black" points="974.11,-106.05 983.54,-101.22 973.16,-99.11 974.11,-106.05"/>
</g>
<!-- [root] provider.aws -->
<g id="node19" class="node">
<title>[root] provider.aws</title>
<polygon fill="none" stroke="black" points="449.47,-36 370.86,-18 449.47,0 528.08,-18 449.47,-36"/>
<text text-anchor="middle" x="449.47" y="-13.8" font-family="Times,serif" font-size="14.00">provider.aws</text>
</g>
<!-- [root] aws_security_group.alb&#45;&gt;[root] provider.aws -->
<g id="edge19" class="edge">
<title>[root] aws_security_group.alb&#45;&gt;[root] provider.aws</title>
<path fill="none" stroke="black" d="M432.48,-143.89C424.2,-125.94 414.1,-96.92 420.47,-72 423.09,-61.74 428.15,-51.33 433.33,-42.49"/>
<polygon fill="black" stroke="black" points="436.35,-44.25 438.66,-33.91 430.41,-40.56 436.35,-44.25"/>
</g>
<!-- [root] aws_security_group.alb&#45;&gt;[root] var.cluster_name -->
<g id="edge20" class="edge">
<title>[root] aws_security_group.alb&#45;&gt;[root] var.cluster_name</title>
<path fill="none" stroke="black" d="M507.66,-143.97C550.26,-133 605.4,-118.81 647.88,-107.88"/>
<polygon fill="black" stroke="black" points="648.75,-111.27 657.56,-105.39 647,-104.49 648.75,-111.27"/>
</g>
<!-- [root] aws_security_group.alb&#45;&gt;[root] var.env -->
<g id="edge21" class="edge">
<title>[root] aws_security_group.alb&#45;&gt;[root] var.env</title>
<path fill="none" stroke="black" d="M491.96,-143.93C516.88,-134.68 546.98,-122.23 572.47,-108 596.07,-94.83 597.53,-84.54 621.47,-72 658.87,-52.41 705.04,-37.64 737.02,-28.73"/>
<polygon fill="black" stroke="black" points="738.15,-32.05 746.88,-26.05 736.31,-25.3 738.15,-32.05"/>
</g>
<!-- [root] aws_security_group.instance&#45;&gt;[root] provider.aws -->
<g id="edge22" class="edge">
<title>[root] aws_security_group.instance&#45;&gt;[root] provider.aws</title>
<path fill="none" stroke="black" d="M1021.99,-143.94C983.35,-133.94 934.04,-120.79 890.47,-108 840.3,-93.27 829.31,-84.19 778.47,-72 685.68,-49.75 575.9,-34.17 509.53,-25.9"/>
<polygon fill="black" stroke="black" points="509.61,-22.39 499.26,-24.64 508.76,-29.33 509.61,-22.39"/>
</g>
<!-- [root] aws_security_group.instance&#45;&gt;[root] var.cluster_name -->
<g id="edge23" class="edge">
<title>[root] aws_security_group.instance&#45;&gt;[root] var.cluster_name</title>
<path fill="none" stroke="black" d="M1000.24,-144.79C943.34,-134.4 868.04,-120.56 801.47,-108 794.24,-106.64 786.68,-105.2 779.16,-103.76"/>
<polygon fill="black" stroke="black" points="779.8,-100.32 769.32,-101.87 778.48,-107.19 779.8,-100.32"/>
</g>
<!-- [root] aws_security_group.instance&#45;&gt;[root] var.env -->
<g id="edge24" class="edge">
<title>[root] aws_security_group.instance&#45;&gt;[root] var.env</title>
<path fill="none" stroke="black" d="M1051.59,-143.87C991.21,-116.56 873.79,-63.46 813.38,-36.15"/>
<polygon fill="black" stroke="black" points="814.75,-32.92 804.2,-31.99 811.86,-39.3 814.75,-32.92"/>
</g>
<!-- [root] aws_security_group_rule.allow_all_outbound -->
<g id="node9" class="node">
<title>[root] aws_security_group_rule.allow_all_outbound</title>
<polygon fill="none" stroke="black" points="648.97,-396 375.97,-396 375.97,-360 648.97,-360 648.97,-396"/>
<text text-anchor="middle" x="512.47" y="-373.8" font-family="Times,serif" font-size="14.00">aws_security_group_rule.allow_all_outbound</text>
</g>
<!-- [root] aws_security_group_rule.allow_all_outbound&#45;&gt;[root] aws_security_group.alb -->
<g id="edge25" class="edge">
<title>[root] aws_security_group_rule.allow_all_outbound&#45;&gt;[root] aws_security_group.alb</title>
<path fill="none" stroke="black" d="M407.55,-359.94C388.68,-352.05 371.29,-340.6 359.47,-324 327.42,-278.98 378.32,-219.67 413.17,-187.07"/>
<polygon fill="black" stroke="black" points="415.74,-189.47 420.77,-180.14 411.02,-184.3 415.74,-189.47"/>
</g>
<!-- [root] aws_security_group_rule.allow_http_inbound -->
<g id="node10" class="node">
<title>[root] aws_security_group_rule.allow_http_inbound</title>
<polygon fill="none" stroke="black" points="1113.26,-396 839.68,-396 839.68,-360 1113.26,-360 1113.26,-396"/>
<text text-anchor="middle" x="976.47" y="-373.8" font-family="Times,serif" font-size="14.00">aws_security_group_rule.allow_http_inbound</text>
</g>
<!-- [root] aws_security_group_rule.allow_http_inbound&#45;&gt;[root] aws_security_group.alb -->
<g id="edge26" class="edge">
<title>[root] aws_security_group_rule.allow_http_inbound&#45;&gt;[root] aws_security_group.alb</title>
<path fill="none" stroke="black" d="M947.57,-359.84C916.92,-341.72 867.01,-312.44 823.47,-288 764.86,-255.1 753.54,-239.23 690.47,-216 682.55,-213.08 595.44,-194.78 526.46,-180.49"/>
<polygon fill="black" stroke="black" points="526.93,-177.01 516.43,-178.41 525.51,-183.87 526.93,-177.01"/>
</g>
<!-- [root] aws_security_group_rule.allow_instance_inbound -->
<g id="node11" class="node">
<title>[root] aws_security_group_rule.allow_instance_inbound</title>
<polygon fill="none" stroke="black" points="1293.35,-324 995.59,-324 995.59,-288 1293.35,-288 1293.35,-324"/>
<text text-anchor="middle" x="1144.47" y="-301.8" font-family="Times,serif" font-size="14.00">aws_security_group_rule.allow_instance_inbound</text>
</g>
<!-- [root] aws_security_group_rule.allow_instance_inbound&#45;&gt;[root] aws_security_group.instance -->
<g id="edge27" class="edge">
<title>[root] aws_security_group_rule.allow_instance_inbound&#45;&gt;[root] aws_security_group.instance</title>
<path fill="none" stroke="black" d="M1140.33,-287.93C1135.69,-269.77 1127.48,-240.34 1117.47,-216 1113.79,-207.05 1109.09,-197.61 1104.59,-189.21"/>
<polygon fill="black" stroke="black" points="1107.55,-187.34 1099.67,-180.26 1101.42,-190.71 1107.55,-187.34"/>
</g>
<!-- [root] aws_security_group_rule.allow_instance_inbound&#45;&gt;[root] var.instance_server_port -->
<g id="edge28" class="edge">
<title>[root] aws_security_group_rule.allow_instance_inbound&#45;&gt;[root] var.instance_server_port</title>
<path fill="none" stroke="black" d="M1157.65,-287.54C1179.5,-256.27 1217.95,-189.75 1187.47,-144 1177.67,-129.29 1162.93,-118.66 1146.92,-110.97"/>
<polygon fill="black" stroke="black" points="1147.94,-107.6 1137.37,-106.78 1145.12,-114 1147.94,-107.6"/>
</g>
<!-- [root] data.aws_availability_zones.all -->
<g id="node12" class="node">
<title>[root] data.aws_availability_zones.all</title>
<polygon fill="none" stroke="black" points="190.91,-396 0.03,-396 0.03,-360 190.91,-360 190.91,-396"/>
<text text-anchor="middle" x="95.47" y="-373.8" font-family="Times,serif" font-size="14.00">data.aws_availability_zones.all</text>
</g>
<!-- [root] data.aws_availability_zones.all&#45;&gt;[root] provider.aws -->
<g id="edge29" class="edge">
<title>[root] data.aws_availability_zones.all&#45;&gt;[root] provider.aws</title>
<path fill="none" stroke="black" d="M100.73,-359.7C108.33,-333.14 121.47,-280.61 121.47,-235 121.47,-235 121.47,-235 121.47,-161 121.47,-53.87 270.64,-26.65 367.78,-20.29"/>
<polygon fill="black" stroke="black" points="368.12,-23.77 377.89,-19.69 367.7,-16.79 368.12,-23.77"/>
</g>
<!-- [root] data.aws_subnet_ids.default&#45;&gt;[root] data.aws_vpc.default -->
<g id="edge30" class="edge">
<title>[root] data.aws_subnet_ids.default&#45;&gt;[root] data.aws_vpc.default</title>
<path fill="none" stroke="black" d="M318.66,-143.97C352.06,-134.01 394.39,-121.41 429.37,-110.99"/>
<polygon fill="black" stroke="black" points="430.44,-114.32 439.03,-108.11 428.44,-107.61 430.44,-114.32"/>
</g>
<!-- [root] data.aws_vpc.default&#45;&gt;[root] provider.aws -->
<g id="edge31" class="edge">
<title>[root] data.aws_vpc.default&#45;&gt;[root] provider.aws</title>
<path fill="none" stroke="black" d="M484.85,-71.7C478.86,-62.77 471.46,-51.76 464.99,-42.11"/>
<polygon fill="black" stroke="black" points="467.85,-40.09 459.36,-33.74 462.03,-43.99 467.85,-40.09"/>
</g>
<!-- [root] data.terraform_remote_state.db -->
<g id="node16" class="node">
<title>[root] data.terraform_remote_state.db</title>
<polygon fill="none" stroke="black" points="1569.17,-108 1377.77,-108 1377.77,-72 1569.17,-72 1569.17,-108"/>
<text text-anchor="middle" x="1473.47" y="-85.8" font-family="Times,serif" font-size="14.00">data.terraform_remote_state.db</text>
</g>
<!-- [root] data.template_file.user_data&#45;&gt;[root] data.terraform_remote_state.db -->
<g id="edge32" class="edge">
<title>[root] data.template_file.user_data&#45;&gt;[root] data.terraform_remote_state.db</title>
<path fill="none" stroke="black" d="M1358.65,-143.88C1379.34,-134.35 1405.27,-122.41 1427.25,-112.28"/>
<polygon fill="black" stroke="black" points="1428.79,-115.43 1436.41,-108.07 1425.86,-109.07 1428.79,-115.43"/>
</g>
<!-- [root] provider.template -->
<g id="node20" class="node">
<title>[root] provider.template</title>
<polygon fill="none" stroke="black" points="1257.47,-108 1155.14,-90 1257.47,-72 1359.79,-90 1257.47,-108"/>
<text text-anchor="middle" x="1257.47" y="-85.8" font-family="Times,serif" font-size="14.00">provider.template</text>
</g>
<!-- [root] data.template_file.user_data&#45;&gt;[root] provider.template -->
<g id="edge33" class="edge">
<title>[root] data.template_file.user_data&#45;&gt;[root] provider.template</title>
<path fill="none" stroke="black" d="M1305.65,-143.7C1297.24,-134.5 1286.8,-123.08 1277.79,-113.23"/>
<polygon fill="black" stroke="black" points="1280.28,-110.76 1270.94,-105.74 1275.11,-115.48 1280.28,-110.76"/>
</g>
<!-- [root] data.template_file.user_data&#45;&gt;[root] var.instance_server_port -->
<g id="edge34" class="edge">
<title>[root] data.template_file.user_data&#45;&gt;[root] var.instance_server_port</title>
<path fill="none" stroke="black" d="M1257.96,-143.97C1220.54,-133.93 1173.04,-121.19 1134,-110.72"/>
<polygon fill="black" stroke="black" points="1134.83,-107.32 1124.27,-108.11 1133.02,-114.08 1134.83,-107.32"/>
</g>
<!-- [root] provider.terraform -->
<g id="node21" class="node">
<title>[root] provider.terraform</title>
<polygon fill="none" stroke="black" points="1665.47,-36 1559.33,-18 1665.47,0 1771.61,-18 1665.47,-36"/>
<text text-anchor="middle" x="1665.47" y="-13.8" font-family="Times,serif" font-size="14.00">provider.terraform</text>
</g>
<!-- [root] data.terraform_remote_state.db&#45;&gt;[root] provider.terraform -->
<g id="edge35" class="edge">
<title>[root] data.terraform_remote_state.db&#45;&gt;[root] provider.terraform</title>
<path fill="none" stroke="black" d="M1520.44,-71.88C1552.09,-60.33 1593.47,-45.25 1623.93,-34.15"/>
<polygon fill="black" stroke="black" points="1625.21,-37.4 1633.4,-30.69 1622.81,-30.83 1625.21,-37.4"/>
</g>
<!-- [root] var.aws_region -->
<g id="node22" class="node">
<title>[root] var.aws_region</title>
<polygon fill="none" stroke="black" points="1382.12,-36 1286.82,-36 1286.82,0 1388.12,0 1388.12,-30 1382.12,-36"/>
<polyline fill="none" stroke="black" points="1382.12,-36 1382.12,-30 "/>
<polyline fill="none" stroke="black" points="1388.12,-30 1382.12,-30 "/>
<text text-anchor="middle" x="1337.47" y="-13.8" font-family="Times,serif" font-size="14.00">var.aws_region</text>
</g>
<!-- [root] data.terraform_remote_state.db&#45;&gt;[root] var.aws_region -->
<g id="edge36" class="edge">
<title>[root] data.terraform_remote_state.db&#45;&gt;[root] var.aws_region</title>
<path fill="none" stroke="black" d="M1440.2,-71.88C1422.01,-62.51 1399.28,-50.81 1379.83,-40.8"/>
<polygon fill="black" stroke="black" points="1381.36,-37.65 1370.87,-36.19 1378.16,-43.88 1381.36,-37.65"/>
</g>
<!-- [root] var.aws_state_bucket -->
<g id="node23" class="node">
<title>[root] var.aws_state_bucket</title>
<polygon fill="none" stroke="black" points="1535.33,-36 1405.61,-36 1405.61,0 1541.33,0 1541.33,-30 1535.33,-36"/>
<polyline fill="none" stroke="black" points="1535.33,-36 1535.33,-30 "/>
<polyline fill="none" stroke="black" points="1541.33,-30 1535.33,-30 "/>
<text text-anchor="middle" x="1473.47" y="-13.8" font-family="Times,serif" font-size="14.00">var.aws_state_bucket</text>
</g>
<!-- [root] data.terraform_remote_state.db&#45;&gt;[root] var.aws_state_bucket -->
<g id="edge37" class="edge">
<title>[root] data.terraform_remote_state.db&#45;&gt;[root] var.aws_state_bucket</title>
<path fill="none" stroke="black" d="M1473.47,-71.7C1473.47,-63.98 1473.47,-54.71 1473.47,-46.11"/>
<polygon fill="black" stroke="black" points="1476.97,-46.1 1473.47,-36.1 1469.97,-46.1 1476.97,-46.1"/>
</g>
<!-- [root] data.terraform_remote_state.db&#45;&gt;[root] var.env -->
<g id="edge38" class="edge">
<title>[root] data.terraform_remote_state.db&#45;&gt;[root] var.env</title>
<path fill="none" stroke="black" d="M1377.66,-73.2C1374.56,-72.78 1371.49,-72.38 1368.47,-72 1160.1,-45.85 908.97,-27.83 814.19,-21.5"/>
<polygon fill="black" stroke="black" points="814.15,-17.99 803.94,-20.82 813.68,-24.97 814.15,-17.99"/>
</g>
<!-- [root] output.asg_name -->
<g id="node17" class="node">
<title>[root] output.asg_name</title>
<polygon fill="none" stroke="black" points="352.23,-396 246.71,-396 246.71,-360 358.23,-360 358.23,-390 352.23,-396"/>
<polyline fill="none" stroke="black" points="352.23,-396 352.23,-390 "/>
<polyline fill="none" stroke="black" points="358.23,-390 352.23,-390 "/>
<text text-anchor="middle" x="302.47" y="-373.8" font-family="Times,serif" font-size="14.00">output.asg_name</text>
</g>
<!-- [root] output.asg_name&#45;&gt;[root] aws_autoscaling_group.front_cluster_autoescaling -->
<g id="edge46" class="edge">
<title>[root] output.asg_name&#45;&gt;[root] aws_autoscaling_group.front_cluster_autoescaling</title>
<path fill="none" stroke="black" d="M358.25,-361.89C361.02,-361.23 363.78,-360.6 366.47,-360 425.27,-346.98 491.16,-335 545.99,-325.73"/>
<polygon fill="black" stroke="black" points="546.82,-329.14 556.1,-324.03 545.66,-322.24 546.82,-329.14"/>
</g>
<!-- [root] output.elb_dns_name -->
<g id="node18" class="node">
<title>[root] output.elb_dns_name</title>
<polygon fill="none" stroke="black" points="305.62,-324 175.32,-324 175.32,-288 311.62,-288 311.62,-318 305.62,-324"/>
<polyline fill="none" stroke="black" points="305.62,-324 305.62,-318 "/>
<polyline fill="none" stroke="black" points="311.62,-318 305.62,-318 "/>
<text text-anchor="middle" x="243.47" y="-301.8" font-family="Times,serif" font-size="14.00">output.elb_dns_name</text>
</g>
<!-- [root] output.elb_dns_name&#45;&gt;[root] aws_lb.balancer -->
<g id="edge47" class="edge">
<title>[root] output.elb_dns_name&#45;&gt;[root] aws_lb.balancer</title>
<path fill="none" stroke="black" d="M247.42,-287.7C249.19,-279.98 251.31,-270.71 253.27,-262.11"/>
<polygon fill="black" stroke="black" points="256.74,-262.63 255.56,-252.1 249.92,-261.07 256.74,-262.63"/>
</g>
<!-- [root] meta.count&#45;boundary (EachMode fixup) -->
<g id="node31" class="node">
<title>[root] meta.count&#45;boundary (EachMode fixup)</title>
<ellipse fill="none" stroke="black" cx="596.47" cy="-450" rx="174.79" ry="18"/>
<text text-anchor="middle" x="596.47" y="-445.8" font-family="Times,serif" font-size="14.00">[root] meta.count&#45;boundary (EachMode fixup)</text>
</g>
<!-- [root] meta.count&#45;boundary (EachMode fixup)&#45;&gt;[root] aws_lb_listener_rule.asg -->
<g id="edge39" class="edge">
<title>[root] meta.count&#45;boundary (EachMode fixup)&#45;&gt;[root] aws_lb_listener_rule.asg</title>
<path fill="none" stroke="black" d="M631.92,-432.23C652.03,-422.72 677.42,-410.71 698.99,-400.51"/>
<polygon fill="black" stroke="black" points="700.74,-403.56 708.28,-396.12 697.74,-397.23 700.74,-403.56"/>
</g>
<!-- [root] meta.count&#45;boundary (EachMode fixup)&#45;&gt;[root] aws_security_group_rule.allow_all_outbound -->
<g id="edge40" class="edge">
<title>[root] meta.count&#45;boundary (EachMode fixup)&#45;&gt;[root] aws_security_group_rule.allow_all_outbound</title>
<path fill="none" stroke="black" d="M576.14,-432.05C565.48,-423.18 552.27,-412.17 540.65,-402.48"/>
<polygon fill="black" stroke="black" points="542.83,-399.74 532.91,-396.03 538.35,-405.12 542.83,-399.74"/>
</g>
<!-- [root] meta.count&#45;boundary (EachMode fixup)&#45;&gt;[root] aws_security_group_rule.allow_http_inbound -->
<g id="edge41" class="edge">
<title>[root] meta.count&#45;boundary (EachMode fixup)&#45;&gt;[root] aws_security_group_rule.allow_http_inbound</title>
<path fill="none" stroke="black" d="M677.99,-433.98C735.31,-423.42 812.45,-409.21 873.95,-397.89"/>
<polygon fill="black" stroke="black" points="874.87,-401.27 884.07,-396.02 873.6,-394.39 874.87,-401.27"/>
</g>
<!-- [root] meta.count&#45;boundary (EachMode fixup)&#45;&gt;[root] aws_security_group_rule.allow_instance_inbound -->
<g id="edge42" class="edge">
<title>[root] meta.count&#45;boundary (EachMode fixup)&#45;&gt;[root] aws_security_group_rule.allow_instance_inbound</title>
<path fill="none" stroke="black" d="M735.04,-438.99C885.93,-427.51 1107.91,-408.63 1122.47,-396 1139.9,-380.88 1144.64,-354.35 1145.48,-334.18"/>
<polygon fill="black" stroke="black" points="1148.98,-334.06 1145.6,-324.02 1141.98,-333.98 1148.98,-334.06"/>
</g>
<!-- [root] meta.count&#45;boundary (EachMode fixup)&#45;&gt;[root] data.aws_availability_zones.all -->
<g id="edge43" class="edge">
<title>[root] meta.count&#45;boundary (EachMode fixup)&#45;&gt;[root] data.aws_availability_zones.all</title>
<path fill="none" stroke="black" d="M492.4,-435.51C413.35,-425.13 301.99,-410.2 204.47,-396 203.38,-395.84 202.28,-395.68 201.18,-395.52"/>
<polygon fill="black" stroke="black" points="201.56,-392.04 191.15,-394.04 200.53,-398.96 201.56,-392.04"/>
</g>
<!-- [root] meta.count&#45;boundary (EachMode fixup)&#45;&gt;[root] output.asg_name -->
<g id="edge44" class="edge">
<title>[root] meta.count&#45;boundary (EachMode fixup)&#45;&gt;[root] output.asg_name</title>
<path fill="none" stroke="black" d="M526.37,-433.48C483.14,-423.76 426.33,-410.73 368.04,-396.36"/>
<polygon fill="black" stroke="black" points="368.84,-392.95 358.29,-393.94 367.16,-399.74 368.84,-392.95"/>
</g>
<!-- [root] meta.count&#45;boundary (EachMode fixup)&#45;&gt;[root] output.elb_dns_name -->
<g id="edge45" class="edge">
<title>[root] meta.count&#45;boundary (EachMode fixup)&#45;&gt;[root] output.elb_dns_name</title>
<path fill="none" stroke="black" d="M428.92,-444.84C348.02,-438.93 262.99,-425.57 237.47,-396 222.99,-379.23 226.57,-353.41 232.54,-333.89"/>
<polygon fill="black" stroke="black" points="235.89,-334.93 235.8,-324.34 229.26,-332.67 235.89,-334.93"/>
</g>
<!-- [root] provider.aws (close) -->
<g id="node32" class="node">
<title>[root] provider.aws (close)</title>
<ellipse fill="none" stroke="black" cx="976.47" cy="-450" rx="104.33" ry="18"/>
<text text-anchor="middle" x="976.47" y="-445.8" font-family="Times,serif" font-size="14.00">[root] provider.aws (close)</text>
</g>
<!-- [root] provider.aws (close)&#45;&gt;[root] aws_autoscaling_group.front_cluster_autoescaling -->
<g id="edge48" class="edge">
<title>[root] provider.aws (close)&#45;&gt;[root] aws_autoscaling_group.front_cluster_autoescaling</title>
<path fill="none" stroke="black" d="M1037.49,-435.39C1090.34,-420.88 1153.77,-395.13 1122.47,-360 1102.49,-337.58 948.57,-323.23 824.59,-315.2"/>
<polygon fill="black" stroke="black" points="824.79,-311.7 814.59,-314.56 824.34,-318.69 824.79,-311.7"/>
</g>
<!-- [root] provider.aws (close)&#45;&gt;[root] aws_lb_listener_rule.asg -->
<g id="edge49" class="edge">
<title>[root] provider.aws (close)&#45;&gt;[root] aws_lb_listener_rule.asg</title>
<path fill="none" stroke="black" d="M926.98,-434.07C893.15,-423.86 847.9,-410.21 810.93,-399.05"/>
<polygon fill="black" stroke="black" points="811.81,-395.66 801.23,-396.12 809.79,-402.36 811.81,-395.66"/>
</g>
<!-- [root] provider.aws (close)&#45;&gt;[root] aws_security_group_rule.allow_all_outbound -->
<g id="edge50" class="edge">
<title>[root] provider.aws (close)&#45;&gt;[root] aws_security_group_rule.allow_all_outbound</title>
<path fill="none" stroke="black" d="M900.89,-437.6C829.01,-426.75 719.62,-410.25 635.23,-397.52"/>
<polygon fill="black" stroke="black" points="635.74,-394.06 625.33,-396.03 634.7,-400.98 635.74,-394.06"/>
</g>
<!-- [root] provider.aws (close)&#45;&gt;[root] aws_security_group_rule.allow_http_inbound -->
<g id="edge51" class="edge">
<title>[root] provider.aws (close)&#45;&gt;[root] aws_security_group_rule.allow_http_inbound</title>
<path fill="none" stroke="black" d="M976.47,-431.7C976.47,-423.98 976.47,-414.71 976.47,-406.11"/>
<polygon fill="black" stroke="black" points="979.97,-406.1 976.47,-396.1 972.97,-406.1 979.97,-406.1"/>
</g>
<!-- [root] provider.aws (close)&#45;&gt;[root] aws_security_group_rule.allow_instance_inbound -->
<g id="edge52" class="edge">
<title>[root] provider.aws (close)&#45;&gt;[root] aws_security_group_rule.allow_instance_inbound</title>
<path fill="none" stroke="black" d="M1060.3,-439.24C1114.05,-431.05 1176.79,-417.24 1193.47,-396 1209.34,-375.79 1191.28,-349.77 1172.77,-331.09"/>
<polygon fill="black" stroke="black" points="1175.09,-328.46 1165.46,-324.07 1170.25,-333.51 1175.09,-328.46"/>
</g>
<!-- [root] provider.aws (close)&#45;&gt;[root] data.aws_availability_zones.all -->
<g id="edge53" class="edge">
<title>[root] provider.aws (close)&#45;&gt;[root] data.aws_availability_zones.all</title>
<path fill="none" stroke="black" d="M886.73,-440.83C853.38,-437.9 815.21,-434.66 780.47,-432 539.31,-413.55 478.29,-418.38 237.47,-396 225.78,-394.91 213.57,-393.65 201.43,-392.31"/>
<polygon fill="black" stroke="black" points="201.58,-388.8 191.26,-391.17 200.8,-395.76 201.58,-388.8"/>
</g>
<!-- [root] provider.template (close) -->
<g id="node33" class="node">
<title>[root] provider.template (close)</title>
<ellipse fill="none" stroke="black" cx="1232.47" cy="-450" rx="120.72" ry="18"/>
<text text-anchor="middle" x="1232.47" y="-445.8" font-family="Times,serif" font-size="14.00">[root] provider.template (close)</text>
</g>
<!-- [root] provider.template (close)&#45;&gt;[root] data.template_file.user_data -->
<g id="edge54" class="edge">
<title>[root] provider.template (close)&#45;&gt;[root] data.template_file.user_data</title>
<path fill="none" stroke="black" d="M1245.02,-431.81C1261.25,-408.61 1289.03,-365.4 1302.47,-324 1317.15,-278.78 1320.73,-223.15 1321.47,-190.52"/>
<polygon fill="black" stroke="black" points="1324.97,-190.44 1321.62,-180.39 1317.97,-190.34 1324.97,-190.44"/>
</g>
<!-- [root] provider.terraform (close) -->
<g id="node34" class="node">
<title>[root] provider.terraform (close)</title>
<ellipse fill="none" stroke="black" cx="1473.47" cy="-306" rx="123.6" ry="18"/>
<text text-anchor="middle" x="1473.47" y="-301.8" font-family="Times,serif" font-size="14.00">[root] provider.terraform (close)</text>
</g>
<!-- [root] provider.terraform (close)&#45;&gt;[root] data.terraform_remote_state.db -->
<g id="edge55" class="edge">
<title>[root] provider.terraform (close)&#45;&gt;[root] data.terraform_remote_state.db</title>
<path fill="none" stroke="black" d="M1473.47,-287.85C1473.47,-250.83 1473.47,-163.18 1473.47,-118.39"/>
<polygon fill="black" stroke="black" points="1476.97,-118.23 1473.47,-108.23 1469.97,-118.23 1476.97,-118.23"/>
</g>
<!-- [root] root -->
<g id="node35" class="node">
<title>[root] root</title>
<ellipse fill="none" stroke="black" cx="1097.47" cy="-522" rx="46.9" ry="18"/>
<text text-anchor="middle" x="1097.47" y="-517.8" font-family="Times,serif" font-size="14.00">[root] root</text>
</g>
<!-- [root] root&#45;&gt;[root] meta.count&#45;boundary (EachMode fixup) -->
<g id="edge56" class="edge">
<title>[root] root&#45;&gt;[root] meta.count&#45;boundary (EachMode fixup)</title>
<path fill="none" stroke="black" d="M1054.32,-514.97C977.56,-504.25 815.1,-481.55 705.83,-466.28"/>
<polygon fill="black" stroke="black" points="706.14,-462.79 695.75,-464.87 705.17,-469.72 706.14,-462.79"/>
</g>
<!-- [root] root&#45;&gt;[root] provider.aws (close) -->
<g id="edge57" class="edge">
<title>[root] root&#45;&gt;[root] provider.aws (close)</title>
<path fill="none" stroke="black" d="M1072.69,-506.67C1055.74,-496.86 1032.96,-483.68 1013.82,-472.61"/>
<polygon fill="black" stroke="black" points="1015.45,-469.5 1005.04,-467.53 1011.94,-475.56 1015.45,-469.5"/>
</g>
<!-- [root] root&#45;&gt;[root] provider.template (close) -->
<g id="edge58" class="edge">
<title>[root] root&#45;&gt;[root] provider.template (close)</title>
<path fill="none" stroke="black" d="M1124.14,-507.17C1143.37,-497.2 1169.68,-483.56 1191.56,-472.21"/>
<polygon fill="black" stroke="black" points="1193.36,-475.22 1200.63,-467.51 1190.14,-469.01 1193.36,-475.22"/>
</g>
<!-- [root] root&#45;&gt;[root] provider.terraform (close) -->
<g id="edge59" class="edge">
<title>[root] root&#45;&gt;[root] provider.terraform (close)</title>
<path fill="none" stroke="black" d="M1141.89,-516.19C1207.59,-508.41 1326.76,-491.51 1362.47,-468 1412.88,-434.81 1446.81,-370.07 1462.83,-333.61"/>
<polygon fill="black" stroke="black" points="1466.17,-334.69 1466.88,-324.12 1459.74,-331.95 1466.17,-334.69"/>
</g>
</g>
</svg>
